<?xml version="1.0" encoding="UTF-8" standalone="yes"?>
<!-- Created with sK1/UniConvertor (http://sk1project.org/) -->
<svg xmlns="http://www.w3.org/2000/svg" xmlns:xlink="http://www.w3.org/1999/xlink"
  width="595.276pt" height="841.89pt" viewBox="0 0 595.276 841.89"
  fill-rule="evenodd">
<g>
<g>
<path style="stroke:none; fill:#000000" d="M 1542.93 566.208L 1262.94 286.207C 1254.73 277.994 1243.6 273.39 1232 273.39L 626.062 273.39C 559.718 273.39 505.75 327.266 505.75 393.495L 505.75 535.89L 363.552 535.89C 297.217 535.89 243.25 589.766 243.25 656.005L 243.25 1553.27C 243.25 1619.5 297.217 1673.39 363.552 1673.39L 1172.96 1673.39C 1239.29 1673.39 1293.25 1619.5 1293.25 1553.27L 1293.25 1410.88L 1435.46 1410.88C 1501.79 1410.88 1555.75 1356.99 1555.75 1290.75L 1555.75 597.141C 1555.75 585.536 1551.14 574.411 1542.93 566.208zM 1257.17 404.18L 1423.86 570.881L 1257.17 570.881L 1257.17 404.18zM 1205.75 1553.27C 1205.75 1571.27 1191.05 1585.89 1172.96 1585.89L 363.552 1585.89C 345.474 1585.89 330.76 1571.26 330.76 1553.27L 330.76 656.005C 330.75 638.022 345.464 623.39 363.552 623.39L 505.75 623.39L 505.75 1290.75C 505.75 1357 559.718 1410.88 626.042 1410.88L 1205.75 1410.88L 1205.75 1553.27zM 1468.25 1290.75C 1468.25 1308.76 1453.53 1323.38 1435.46 1323.38L 1293.25 1323.38L 1205.75 1323.38L 626.053 1323.38C 607.974 1323.38 593.26 1308.75 593.26 1290.75L 593.26 623.39L 593.26 535.89L 593.26 393.495C 593.25 375.512 607.974 360.89 626.062 360.89L 1169.68 360.89L 1169.68 614.631C 1169.68 638.791 1189.27 658.381 1213.43 658.381L 1468.25 658.381L 1468.25 1290.75z"/>
<path style="stroke:none; fill:#000000" d="M 724.5 535.89L 1039.5 535.89C 1063.66 535.89 1083.25 516.302 1083.25 492.14C 1083.25 467.978 1063.66 448.39 1039.5 448.39L 724.5 448.39C 700.338 448.39 680.75 467.978 680.75 492.14C 680.75 516.302 700.351 535.89 724.5 535.89z"/>
<path style="stroke:none; fill:#000000" d="M 724.5 710.89L 1039.5 710.89C 1063.66 710.89 1083.25 691.302 1083.25 667.14C 1083.25 642.978 1063.66 623.39 1039.5 623.39L 724.5 623.39C 700.338 623.39 680.75 642.978 680.75 667.14C 680.75 691.302 700.351 710.89 724.5 710.89z"/>
<path style="stroke:none; fill:#000000" d="M 680.75 842.14C 680.75 866.302 700.338 885.89 724.5 885.89L 1337 885.89C 1361.16 885.89 1380.75 866.302 1380.75 842.14C 1380.75 817.978 1361.16 798.39 1337 798.39L 724.5 798.39C 700.351 798.39 680.75 817.978 680.75 842.14z"/>
<path style="stroke:none; fill:#000000" d="M 1205.75 973.39L 724.5 973.39C 700.338 973.39 680.75 992.978 680.75 1017.14C 680.75 1041.3 700.338 1060.89 724.5 1060.89L 1205.75 1060.89C 1229.91 1060.89 1249.5 1041.3 1249.5 1017.14C 1249.5 992.978 1229.91 973.39 1205.75 973.39z"/>
</g>
</g>
</svg>